<svg width="24" height="24" viewBox="0 0 155 83" fill="none" xmlns="http://www.w3.org/2000/svg">
<rect x="1" y="3" width="15" height="80" rx="5" fill="#D9D9D9"/>
<rect x="69" y="3" width="15" height="80" rx="5" fill="#D9D9D9"/>
<rect x="75.033" width="15" height="60" rx="7.5" transform="rotate(45 75.033 0)" fill="#D9D9D9"/>
<rect y="10.6066" width="15" height="60" rx="7.5" transform="rotate(-45 0 10.6066)" fill="#D9D9D9"/>
<path d="M95 18C92.2386 18 90 15.7614 90 13V8C90 5.23858 92.2386 3 95 3L150 3C152.761 3 155 5.23858 155 8V13C155 15.7614 152.761 18 150 18L95 18Z" fill="#D9D9D9"/>
<path d="M95 83C92.2386 83 90 80.7614 90 78V73C90 70.2386 92.2386 68 95 68H150C152.761 68 155 70.2386 155 73V78C155 80.7614 152.761 83 150 83H95Z" fill="#D9D9D9"/>
</svg>
