<svg width="32" height="32" viewBox="0 0 152 83" fill="none" xmlns="http://www.w3.org/2000/svg">
    <rect x="1" y="3" width="15" height="80" rx="5" fill="#D9D9D9"/>
    <rect x="69" y="3" width="15" height="80" rx="5" fill="#D9D9D9"/>
    <rect x="75.033" width="15" height="60" rx="7.5" transform="rotate(45 75.033 0)" fill="#D9D9D9"/>
    <rect y="10.6066" width="15" height="60" rx="7.5" transform="rotate(-45 0 10.6066)" fill="#D9D9D9"/>
    <path d="M97 18C94.2386 18 92 15.7614 92 13V8C92 5.23858 94.2386 3 97 3L147 3C149.761 3 152 5.23858 152 8V13C152 15.7614 149.761 18 147 18L97 18Z" fill="#D9D9D9"/>
    <path d="M97 83C94.2386 83 92 80.7614 92 78V73C92 70.2386 94.2386 68 97 68H147C149.761 68 152 70.2386 152 73V78C152 80.7614 149.761 83 147 83H97Z" fill="#D9D9D9"/>
</svg>
